{
  "accessors": [
    {
      "bufferView": 1,
      "componentType": 5126,
      "count": 9414,
      "max": [
        79.106826782226562,
        133.62887573242188,
        2.0651745796203613
      ],
      "min": [
        -73.579818725585938,
        -129.16902160644531,
        -0.035189591348171234
      ],
      "type": "VEC3"
    },
    {
      "bufferView": 1,
      "byteOffset": 112968,
      "componentType": 5126,
      "count": 9414,
      "max": [
        1,
        1,
        1
      ],
      "min": [
        -1,
        -1,
        -1
      ],
      "type": "VEC3"
    },
    {
      "bufferView": 0,
      "componentType": 5125,
      "count": 27060,
      "max": [
        9413
      ],
      "min": [
        0
      ],
      "type": "SCALAR"
    }
  ],
  "asset": {
    "extras": {
      "author": "Joel From (https://sketchfab.com/joelfromsweden)",
      "license": "CC-BY-4.0 (http://creativecommons.org/licenses/by/4.0/)",
      "source": "https://sketchfab.com/models/19793d9df77b4dedbbdee702766d7945",
      "title": "Liverpool F.C"
    },
    "generator": "Sketchfab-3.18.7",
    "version": "2.0"
  },
  "bufferViews": [
    {
      "buffer": 0,
      "byteLength": 108240,
      "byteOffset": 0,
      "name": "floatBufferViews",
      "target": 34963
    },
    {
      "buffer": 0,
      "byteLength": 225936,
      "byteOffset": 108240,
      "byteStride": 12,
      "name": "floatBufferViews",
      "target": 34962
    }
  ],
  "buffers": [
    {
      "byteLength": 334176,
      "uri": "scene.bin"
    }
  ],
  "materials": [
    {
      "doubleSided": true,
      "emissiveFactor": [
        0,
        0,
        0
      ],
      "name": "Material_26",
      "pbrMetallicRoughness": {
        "baseColorFactor": [
          1,
          0.0313726,
          0.0313726,
          1
        ],
        "metallicFactor": 0,
        "roughnessFactor": 0.89297135959999996
      }
    }
  ],
  "meshes": [
    {
      "name": "hela_Material #26_0",
      "primitives": [
        {
          "attributes": {
            "NORMAL": 1,
            "POSITION": 0
          },
          "indices": 2,
          "material": 0,
          "mode": 4
        }
      ]
    }
  ],
  "nodes": [
    {
      "children": [
        1
      ],
      "name": "RootNode (gltf orientation matrix)",
      "rotation": [
        -0.70710678118654746,
        -0,
        -0,
        0.70710678118654757
      ]
    },
    {
      "children": [
        2
      ],
      "name": "RootNode (model correction matrix)"
    },
    {
      "children": [
        3
      ],
      "matrix": [
        1,
        0,
        0,
        0,
        0,
        0,
        1,
        0,
        0,
        -1,
        0,
        0,
        0,
        0,
        0,
        1
      ],
      "name": "8dedd3e29edb4065ba12864329244ae8.fbx"
    },
    {
      "children": [
        4
      ],
      "name": "RootNode"
    },
    {
      "children": [
        5
      ],
      "matrix": [
        1,
        0,
        0,
        0,
        0,
        0.999999999999999,
        4.3711388286737922e-08,
        0,
        0,
        -4.3711388286737922e-08,
        0.999999999999999,
        0,
        5.1709403991699219,
        0,
        -6.1334638595581055,
        1
      ],
      "name": "hela"
    },
    {
      "mesh": 0,
      "name": "hela_Material #26_0"
    }
  ],
  "scene": 0,
  "scenes": [
    {
      "name": "OSG_Scene",
      "nodes": [
        0
      ]
    }
  ]
}

